<?xml version="1.0" encoding="iso-8859-1"?>
<!-- Uploaded to: SVG Repo, www.svgrepo.com, Generator: SVG Repo Mixer Tools -->
<svg fill="#000000" height="800px" width="800px" version="1.1" id="Capa_1" xmlns="http://www.w3.org/2000/svg" xmlns:xlink="http://www.w3.org/1999/xlink" 
	 viewBox="0 0 290.385 290.385" xml:space="preserve">
<g>
	<path id="path25782" d="M145.192,0c-35.295,0-63.961,28.073-64.953,63.127C54.095,71.541,35.192,96.04,35.192,125
		c0,35.924,29.076,65,65,65h90c35.924,0,65-29.076,65-65c0-28.959-18.901-53.458-45.047-61.873C209.153,28.073,180.488,0,145.192,0z
		 M145.192,10c29.12,0,52.67,22.205,54.822,50.738c-3.203-0.485-6.483-0.738-9.822-0.738c-2.761-0.039-5.032,2.168-5.071,4.929
		c-0.039,2.761,2.168,5.032,4.929,5.071c0.047,0.001,0.094,0.001,0.141,0c30.556,0,55,24.444,55,55s-24.444,55-55,55h-90
		c-30.556,0-55-24.444-55-55s24.444-55,54.996-55c30.43,0,54.996,24.564,54.996,55c-0.039,2.761,2.168,5.032,4.929,5.071
		c2.761,0.039,5.032-2.168,5.071-4.929c0.001-0.047,0.001-0.094,0-0.141c0-34.908-27.666-63.467-62.217-64.93
		c2.356-21.492,19.977-37.572,42.223-37.572c1.381,0.02,2.516-1.084,2.535-2.465s-1.084-2.516-2.465-2.535c-0.024,0-0.047,0-0.071,0
		c-24.85,0-44.745,18.421-47.168,42.557c-2.591,0.085-5.147,0.303-7.652,0.682C92.523,32.204,116.073,10,145.192,10z
		 M100.188,77.498c-26.525,0-47.496,20.969-47.496,47.5c-0.02,1.381,1.084,2.516,2.465,2.535s2.516-1.084,2.535-2.465
		c0-0.024,0-0.047,0-0.071c0-23.917,18.585-42.5,42.496-42.5c1.381,0.02,2.516-1.084,2.535-2.465
		c0.02-1.381-1.084-2.516-2.465-2.535C100.236,77.498,100.212,77.498,100.188,77.498z M78.177,209.623
		c-2.214,0.113-4.132,1.571-4.834,3.674c-2.96,8.879-7.99,15.466-12.797,22.818s-9.354,15.77-9.354,27.01
		c0,14.991,12.268,27.26,27.26,27.26s27.26-12.269,27.26-27.26c0-11.24-4.548-19.658-9.355-27.01s-9.837-13.939-12.797-22.818
		C82.794,211.002,80.592,209.5,78.177,209.623z M144.917,209.623c-2.213,0.114-4.131,1.572-4.832,3.674
		c-2.96,8.879-7.99,15.466-12.797,22.818c-4.807,7.352-9.355,15.77-9.355,27.01c0,14.991,12.268,27.26,27.26,27.26
		s27.26-12.269,27.26-27.26c0-11.24-4.548-19.658-9.355-27.01c-4.807-7.352-9.837-13.939-12.797-22.818
		C149.534,211.002,147.333,209.5,144.917,209.623z M211.657,209.623c-2.213,0.114-4.131,1.572-4.832,3.674
		c-2.96,8.879-7.99,15.466-12.797,22.818s-9.355,15.77-9.355,27.01c0,14.991,12.268,27.26,27.26,27.26s27.26-12.269,27.26-27.26
		c0-11.24-4.546-19.658-9.354-27.01s-9.837-13.939-12.797-22.818C216.276,211.002,214.074,209.499,211.657,209.623z
		 M145.192,227.975c2.943,5.289,6.16,9.856,8.893,14.035c4.49,6.867,7.598,12.668,7.598,21.115c0,9.171-7.319,16.49-16.49,16.49
		s-16.49-7.319-16.49-16.49c0-8.447,3.108-14.249,7.598-21.115C139.032,237.831,142.249,233.264,145.192,227.975z M78.452,227.977
		c2.943,5.288,6.159,9.855,8.891,14.033c4.49,6.867,7.6,12.668,7.6,21.115c0,9.171-7.319,16.49-16.49,16.49
		s-16.49-7.319-16.49-16.49c0-8.447,3.108-14.249,7.598-21.115C72.292,237.831,75.509,233.265,78.452,227.977z M211.933,227.977
		c2.943,5.288,6.161,9.855,8.893,14.033c4.49,6.867,7.598,12.668,7.598,21.115c0,9.171-7.319,16.49-16.49,16.49
		s-16.49-7.319-16.49-16.49c0-8.447,3.11-14.249,7.6-21.115C205.774,237.832,208.989,233.265,211.933,227.977z"/>
</g>
</svg>